<mxfile host="Electron" agent="Mozilla/5.0 (Windows NT 10.0; Win64; x64) AppleWebKit/537.36 (KHTML, like Gecko) draw.io/28.0.6 Chrome/138.0.7204.100 Electron/37.2.3 Safari/537.36" version="28.0.6">
  <diagram name="architecture" id="VIwDsIJzzTMuS4tiMOGr">
    <mxGraphModel dx="1426" dy="961" grid="1" gridSize="10" guides="1" tooltips="1" connect="1" arrows="1" fold="1" page="1" pageScale="1" pageWidth="1100" pageHeight="850" math="0" shadow="0">
      <root>
        <mxCell id="3580vcL_ruPngnJYZpkU-0" />
        <mxCell id="3580vcL_ruPngnJYZpkU-1" parent="3580vcL_ruPngnJYZpkU-0" />
        <UserObject label="&lt;div style=&quot;font-size: 1px&quot;&gt;&lt;font style=&quot;font-size:16.93px;font-family:Calibri;color:#feffff;direction:ltr;letter-spacing:0px;line-height:120%;opacity:1&quot;&gt;UPF&lt;br/&gt;&lt;/font&gt;&lt;/div&gt;" tags="Background" id="3580vcL_ruPngnJYZpkU-6">
          <mxCell style="verticalAlign=middle;align=center;overflow=width;vsdxID=1081;fillColor=#5b9bd5;gradientColor=none;shape=stencil(nZBLDoAgDERP0z3SIyjew0SURgSD+Lu9kMZoXLhwN9O+tukAlrNpJg1SzDH4QW/URgNYgZTkjA4UkwJUgGXng+6DX1zLfmoymdXo17xh5zmRJ6Q42BWCfc2oJfdAr+Yv+AP9Cb7OJ3H/2JG1HNGz/84klThPVCc=);strokeColor=#939393;points=[[0,0.5,0],[1,0.5,0],[0.5,1,0],[0.5,0,0]];labelBackgroundColor=none;rounded=0;html=1;whiteSpace=wrap;" parent="3580vcL_ruPngnJYZpkU-1" vertex="1">
            <mxGeometry x="594" y="543" width="50" height="50" as="geometry" />
          </mxCell>
        </UserObject>
        <UserObject label="&lt;div style=&quot;font-size: 1px&quot;&gt;&lt;font style=&quot;font-size:16.93px;font-family:Calibri;color:#feffff;direction:ltr;letter-spacing:0px;line-height:120%;opacity:1&quot;&gt;AUSF&lt;br/&gt;&lt;/font&gt;&lt;/div&gt;" tags="Background" id="3580vcL_ruPngnJYZpkU-7">
          <mxCell style="verticalAlign=middle;align=center;overflow=width;vsdxID=1082;fillColor=#5b9bd5;gradientColor=none;shape=stencil(nZBLDoAgDERP0z3SIyjew0SURgSD+Lu9kMZoXLhwN9O+tukAlrNpJg1SzDH4QW/URgNYgZTkjA4UkwJUgGXng+6DX1zLfmoymdXo17xh5zmRJ6Q42BWCfc2oJfdAr+Yv+AP9Cb7OJ3H/2JG1HNGz/84klThPVCc=);strokeColor=#939393;points=[[0,0.5,0],[1,0.5,0],[0.5,1,0],[0.5,0,0]];labelBackgroundColor=none;rounded=0;html=1;whiteSpace=wrap;" parent="3580vcL_ruPngnJYZpkU-1" vertex="1">
            <mxGeometry x="676" y="414" width="50" height="50" as="geometry" />
          </mxCell>
        </UserObject>
        <UserObject label="&lt;div style=&quot;font-size: 1px&quot;&gt;&lt;font style=&quot;font-size:16.93px;font-family:Calibri;color:#feffff;direction:ltr;letter-spacing:0px;line-height:120%;opacity:1&quot;&gt;NRF&lt;br/&gt;&lt;/font&gt;&lt;/div&gt;" tags="Background" id="3580vcL_ruPngnJYZpkU-8">
          <mxCell style="verticalAlign=middle;align=center;overflow=width;vsdxID=1083;fillColor=#5b9bd5;gradientColor=none;shape=stencil(nZBLDoAgDERP0z3SIyjew0SURgSD+Lu9kMZoXLhwN9O+tukAlrNpJg1SzDH4QW/URgNYgZTkjA4UkwJUgGXng+6DX1zLfmoymdXo17xh5zmRJ6Q42BWCfc2oJfdAr+Yv+AP9Cb7OJ3H/2JG1HNGz/84klThPVCc=);strokeColor=#939393;points=[[0,0.5,0],[1,0.5,0],[0.5,1,0],[0.5,0,0]];labelBackgroundColor=none;rounded=0;html=1;whiteSpace=wrap;" parent="3580vcL_ruPngnJYZpkU-1" vertex="1">
            <mxGeometry x="515" y="296" width="50" height="50" as="geometry" />
          </mxCell>
        </UserObject>
        <UserObject label="&lt;div style=&quot;font-size: 1px&quot;&gt;&lt;font style=&quot;font-size:16.93px;font-family:Calibri;color:#feffff;direction:ltr;letter-spacing:0px;line-height:120%;opacity:1&quot;&gt;PCF&lt;br/&gt;&lt;/font&gt;&lt;/div&gt;" tags="Background" id="3580vcL_ruPngnJYZpkU-9">
          <mxCell style="verticalAlign=middle;align=center;overflow=width;vsdxID=1085;fillColor=#5b9bd5;gradientColor=none;shape=stencil(nZBLDoAgDERP0z3SIyjew0SURgSD+Lu9kMZoXLhwN9O+tukAlrNpJg1SzDH4QW/URgNYgZTkjA4UkwJUgGXng+6DX1zLfmoymdXo17xh5zmRJ6Q42BWCfc2oJfdAr+Yv+AP9Cb7OJ3H/2JG1HNGz/84klThPVCc=);strokeColor=#939393;points=[[0,0.5,0],[1,0.5,0],[0.5,1,0],[0.5,0,0]];labelBackgroundColor=none;rounded=0;html=1;whiteSpace=wrap;" parent="3580vcL_ruPngnJYZpkU-1" vertex="1">
            <mxGeometry x="614" y="296" width="50" height="50" as="geometry" />
          </mxCell>
        </UserObject>
        <UserObject label="&lt;div style=&quot;font-size: 1px&quot;&gt;&lt;font style=&quot;font-size:16.93px;font-family:Calibri;color:#feffff;direction:ltr;letter-spacing:0px;line-height:120%;opacity:1&quot;&gt;UDM&lt;br/&gt;&lt;/font&gt;&lt;/div&gt;" tags="Background" id="3580vcL_ruPngnJYZpkU-10">
          <mxCell style="verticalAlign=middle;align=center;overflow=width;vsdxID=1086;fillColor=#5b9bd5;gradientColor=none;shape=stencil(nZBLDoAgDERP0z3SIyjew0SURgSD+Lu9kMZoXLhwN9O+tukAlrNpJg1SzDH4QW/URgNYgZTkjA4UkwJUgGXng+6DX1zLfmoymdXo17xh5zmRJ6Q42BWCfc2oJfdAr+Yv+AP9Cb7OJ3H/2JG1HNGz/84klThPVCc=);strokeColor=#939393;points=[[0,0.5,0],[1,0.5,0],[0.5,1,0],[0.5,0,0]];labelBackgroundColor=none;rounded=0;html=1;whiteSpace=wrap;" parent="3580vcL_ruPngnJYZpkU-1" vertex="1">
            <mxGeometry x="696" y="296" width="50" height="50" as="geometry" />
          </mxCell>
        </UserObject>
        <UserObject label="&lt;div style=&quot;font-size: 1px&quot;&gt;&lt;font style=&quot;font-size:16.93px;font-family:Calibri;color:#feffff;direction:ltr;letter-spacing:0px;line-height:120%;opacity:1&quot;&gt;NSSF&lt;br/&gt;&lt;/font&gt;&lt;/div&gt;" tags="Background" id="3580vcL_ruPngnJYZpkU-11">
          <mxCell style="verticalAlign=middle;align=center;overflow=width;vsdxID=1088;fillColor=#5b9bd5;gradientColor=none;shape=stencil(nZBLDoAgDERP0z3SIyjew0SURgSD+Lu9kMZoXLhwN9O+tukAlrNpJg1SzDH4QW/URgNYgZTkjA4UkwJUgGXng+6DX1zLfmoymdXo17xh5zmRJ6Q42BWCfc2oJfdAr+Yv+AP9Cb7OJ3H/2JG1HNGz/84klThPVCc=);strokeColor=#939393;points=[[0,0.5,0],[1,0.5,0],[0.5,1,0],[0.5,0,0]];labelBackgroundColor=none;rounded=0;html=1;whiteSpace=wrap;" parent="3580vcL_ruPngnJYZpkU-1" vertex="1">
            <mxGeometry x="433" y="296" width="50" height="50" as="geometry" />
          </mxCell>
        </UserObject>
        <UserObject label="&lt;div style=&quot;font-size: 1px&quot;&gt;&lt;font style=&quot;font-size:16.93px;font-family:Calibri;color:#feffff;direction:ltr;letter-spacing:0px;line-height:120%;opacity:1&quot;&gt;SMF&lt;br/&gt;&lt;/font&gt;&lt;/div&gt;" tags="Background" id="3580vcL_ruPngnJYZpkU-12">
          <mxCell style="verticalAlign=middle;align=center;overflow=width;vsdxID=1089;fillColor=#5b9bd5;gradientColor=none;shape=stencil(nZBLDoAgDERP0z3SIyjew0SURgSD+Lu9kMZoXLhwN9O+tukAlrNpJg1SzDH4QW/URgNYgZTkjA4UkwJUgGXng+6DX1zLfmoymdXo17xh5zmRJ6Q42BWCfc2oJfdAr+Yv+AP9Cb7OJ3H/2JG1HNGz/84klThPVCc=);strokeColor=#939393;points=[[0,0.5,0],[1,0.5,0],[0.5,1,0],[0.5,0,0]];labelBackgroundColor=none;rounded=0;html=1;whiteSpace=wrap;" parent="3580vcL_ruPngnJYZpkU-1" vertex="1">
            <mxGeometry x="594" y="414" width="50" height="50" as="geometry" />
          </mxCell>
        </UserObject>
        <UserObject label="&lt;div style=&quot;font-size: 1px&quot;&gt;&lt;font style=&quot;font-size:16.93px;font-family:Calibri;color:#feffff;direction:ltr;letter-spacing:0px;line-height:120%;opacity:1&quot;&gt;AMF&lt;br/&gt;&lt;/font&gt;&lt;/div&gt;" tags="Background" id="3580vcL_ruPngnJYZpkU-13">
          <mxCell style="verticalAlign=middle;align=center;overflow=width;vsdxID=1090;fillColor=#5b9bd5;gradientColor=none;shape=stencil(nZBLDoAgDERP0z3SIyjew0SURgSD+Lu9kMZoXLhwN9O+tukAlrNpJg1SzDH4QW/URgNYgZTkjA4UkwJUgGXng+6DX1zLfmoymdXo17xh5zmRJ6Q42BWCfc2oJfdAr+Yv+AP9Cb7OJ3H/2JG1HNGz/84klThPVCc=);strokeColor=#939393;points=[[0,0.5,0],[1,0.5,0],[0.5,1,0],[0.5,0,0]];labelBackgroundColor=none;rounded=0;html=1;whiteSpace=wrap;" parent="3580vcL_ruPngnJYZpkU-1" vertex="1">
            <mxGeometry x="467" y="414" width="50" height="50" as="geometry" />
          </mxCell>
        </UserObject>
        <UserObject label="&lt;div style=&quot;font-size: 1px&quot;&gt;&lt;p style=&quot;margin: 0px; text-indent: 0px; vertical-align: middle; direction: ltr;&quot;&gt;&lt;font style=&quot;font-size:16.93px;font-family:Calibri;color:#939393;direction:ltr;letter-spacing:0px;line-height:120%;opacity:1&quot;&gt;Nudm&lt;br&gt;&lt;/font&gt;&lt;/p&gt;&lt;/div&gt;" tags="Background" id="3580vcL_ruPngnJYZpkU-14">
          <mxCell style="verticalAlign=middle;align=center;overflow=width;vsdxID=1103;fillColor=none;gradientColor=none;shape=stencil(nZBLDoAgDERP0z3SIyjew0SURgSD+Lu9kMZoXLhwN9O+tukAlrNpJg1SzDH4QW/URgNYgZTkjA4UkwJUgGXng+6DX1zLfmoymdXo17xh5zmRJ6Q42BWCfc2oJfdAr+Yv+AP9Cb7OJ3H/2JG1HNGz/84klThPVCc=);strokeColor=none;points=[];labelBackgroundColor=none;rounded=0;html=1;whiteSpace=wrap;" parent="3580vcL_ruPngnJYZpkU-1" vertex="1">
            <mxGeometry x="713" y="354" width="63" height="26" as="geometry" />
          </mxCell>
        </UserObject>
        <UserObject label="&lt;div style=&quot;font-size: 1px&quot;&gt;&lt;p style=&quot;margin: 0px; text-indent: 0px; vertical-align: middle; direction: ltr;&quot;&gt;&lt;font style=&quot;font-size:16.93px;font-family:Calibri;color:#939393;direction:ltr;letter-spacing:0px;line-height:120%;opacity:1&quot;&gt;Npcf&lt;br&gt;&lt;/font&gt;&lt;/p&gt;&lt;/div&gt;" tags="Background" id="3580vcL_ruPngnJYZpkU-15">
          <mxCell style="verticalAlign=middle;align=center;overflow=width;vsdxID=1104;fillColor=none;gradientColor=none;shape=stencil(nZBLDoAgDERP0z3SIyjew0SURgSD+Lu9kMZoXLhwN9O+tukAlrNpJg1SzDH4QW/URgNYgZTkjA4UkwJUgGXng+6DX1zLfmoymdXo17xh5zmRJ6Q42BWCfc2oJfdAr+Yv+AP9Cb7OJ3H/2JG1HNGz/84klThPVCc=);strokeColor=none;points=[];labelBackgroundColor=none;rounded=0;html=1;whiteSpace=wrap;" parent="3580vcL_ruPngnJYZpkU-1" vertex="1">
            <mxGeometry x="627" y="354" width="63" height="26" as="geometry" />
          </mxCell>
        </UserObject>
        <UserObject label="&lt;div style=&quot;font-size: 1px&quot;&gt;&lt;p style=&quot;margin: 0px; text-indent: 0px; vertical-align: middle; direction: ltr;&quot;&gt;&lt;font style=&quot;font-size:16.93px;font-family:Calibri;color:#939393;direction:ltr;letter-spacing:0px;line-height:120%;opacity:1&quot;&gt;Nnrf&lt;br&gt;&lt;/font&gt;&lt;/p&gt;&lt;/div&gt;" tags="Background" id="3580vcL_ruPngnJYZpkU-16">
          <mxCell style="verticalAlign=middle;align=center;overflow=width;vsdxID=1105;fillColor=none;gradientColor=none;shape=stencil(nZBLDoAgDERP0z3SIyjew0SURgSD+Lu9kMZoXLhwN9O+tukAlrNpJg1SzDH4QW/URgNYgZTkjA4UkwJUgGXng+6DX1zLfmoymdXo17xh5zmRJ6Q42BWCfc2oJfdAr+Yv+AP9Cb7OJ3H/2JG1HNGz/84klThPVCc=);strokeColor=none;points=[];labelBackgroundColor=none;rounded=0;html=1;whiteSpace=wrap;" parent="3580vcL_ruPngnJYZpkU-1" vertex="1">
            <mxGeometry x="528" y="353" width="63" height="26" as="geometry" />
          </mxCell>
        </UserObject>
        <UserObject label="&lt;div style=&quot;font-size: 1px&quot;&gt;&lt;p style=&quot;margin: 0px; text-indent: 0px; vertical-align: middle; direction: ltr;&quot;&gt;&lt;font style=&quot;font-size:16.93px;font-family:Calibri;color:#939393;direction:ltr;letter-spacing:0px;line-height:120%;opacity:1&quot;&gt;Nnssf&lt;br&gt;&lt;/font&gt;&lt;/p&gt;&lt;/div&gt;" tags="Background" id="3580vcL_ruPngnJYZpkU-17">
          <mxCell style="verticalAlign=middle;align=center;overflow=width;vsdxID=1107;fillColor=none;gradientColor=none;shape=stencil(nZBLDoAgDERP0z3SIyjew0SURgSD+Lu9kMZoXLhwN9O+tukAlrNpJg1SzDH4QW/URgNYgZTkjA4UkwJUgGXng+6DX1zLfmoymdXo17xh5zmRJ6Q42BWCfc2oJfdAr+Yv+AP9Cb7OJ3H/2JG1HNGz/84klThPVCc=);strokeColor=none;points=[];labelBackgroundColor=none;rounded=0;html=1;whiteSpace=wrap;" parent="3580vcL_ruPngnJYZpkU-1" vertex="1">
            <mxGeometry x="449" y="354" width="63" height="26" as="geometry" />
          </mxCell>
        </UserObject>
        <UserObject label="&lt;div style=&quot;font-size: 1px&quot;&gt;&lt;p style=&quot;margin: 0px; text-indent: 0px; vertical-align: middle; direction: ltr;&quot;&gt;&lt;font style=&quot;font-size:16.93px;font-family:Calibri;color:#939393;direction:ltr;letter-spacing:0px;line-height:120%;opacity:1&quot;&gt;Nausf&lt;br&gt;&lt;/font&gt;&lt;/p&gt;&lt;/div&gt;" tags="Background" id="3580vcL_ruPngnJYZpkU-18">
          <mxCell style="verticalAlign=middle;align=center;overflow=width;vsdxID=1108;fillColor=none;gradientColor=none;shape=stencil(nZBLDoAgDERP0z3SIyjew0SURgSD+Lu9kMZoXLhwN9O+tukAlrNpJg1SzDH4QW/URgNYgZTkjA4UkwJUgGXng+6DX1zLfmoymdXo17xh5zmRJ6Q42BWCfc2oJfdAr+Yv+AP9Cb7OJ3H/2JG1HNGz/84klThPVCc=);strokeColor=none;points=[];labelBackgroundColor=none;rounded=0;html=1;whiteSpace=wrap;" parent="3580vcL_ruPngnJYZpkU-1" vertex="1">
            <mxGeometry x="645" y="380" width="63" height="26" as="geometry" />
          </mxCell>
        </UserObject>
        <UserObject label="&lt;div style=&quot;font-size: 1px&quot;&gt;&lt;p style=&quot;margin: 0px; text-indent: 0px; vertical-align: middle; direction: ltr;&quot;&gt;&lt;font style=&quot;font-size:16.93px;font-family:Calibri;color:#939393;direction:ltr;letter-spacing:0px;line-height:120%;opacity:1&quot;&gt;Namf&lt;br&gt;&lt;/font&gt;&lt;/p&gt;&lt;/div&gt;" tags="Background" id="3580vcL_ruPngnJYZpkU-19">
          <mxCell style="verticalAlign=middle;align=center;overflow=width;vsdxID=1109;fillColor=none;gradientColor=none;shape=stencil(nZBLDoAgDERP0z3SIyjew0SURgSD+Lu9kMZoXLhwN9O+tukAlrNpJg1SzDH4QW/URgNYgZTkjA4UkwJUgGXng+6DX1zLfmoymdXo17xh5zmRJ6Q42BWCfc2oJfdAr+Yv+AP9Cb7OJ3H/2JG1HNGz/84klThPVCc=);strokeColor=none;points=[];labelBackgroundColor=none;rounded=0;html=1;whiteSpace=wrap;" parent="3580vcL_ruPngnJYZpkU-1" vertex="1">
            <mxGeometry x="483" y="380" width="63" height="26" as="geometry" />
          </mxCell>
        </UserObject>
        <UserObject label="&lt;div style=&quot;font-size: 1px&quot;&gt;&lt;p style=&quot;margin: 0px; text-indent: 0px; vertical-align: middle; direction: ltr;&quot;&gt;&lt;font style=&quot;font-size:16.93px;font-family:Calibri;color:#939393;direction:ltr;letter-spacing:0px;line-height:120%;opacity:1&quot;&gt;Nsmf&lt;br&gt;&lt;/font&gt;&lt;/p&gt;&lt;/div&gt;" tags="Background" id="3580vcL_ruPngnJYZpkU-20">
          <mxCell style="verticalAlign=middle;align=center;overflow=width;vsdxID=1110;fillColor=none;gradientColor=none;shape=stencil(nZBLDoAgDERP0z3SIyjew0SURgSD+Lu9kMZoXLhwN9O+tukAlrNpJg1SzDH4QW/URgNYgZTkjA4UkwJUgGXng+6DX1zLfmoymdXo17xh5zmRJ6Q42BWCfc2oJfdAr+Yv+AP9Cb7OJ3H/2JG1HNGz/84klThPVCc=);strokeColor=none;points=[];labelBackgroundColor=none;rounded=0;html=1;whiteSpace=wrap;" parent="3580vcL_ruPngnJYZpkU-1" vertex="1">
            <mxGeometry x="564" y="380" width="63" height="26" as="geometry" />
          </mxCell>
        </UserObject>
        <UserObject label="&lt;div style=&quot;font-size: 1px&quot;&gt;&lt;p style=&quot;text-align:left;margin-left:0;margin-right:0;margin-top:0px;margin-bottom:0px;text-indent:0;vertical-align:middle;direction:ltr;&quot;&gt;&lt;font style=&quot;font-size:16.93px;font-family:Calibri;color:#939393;direction:ltr;letter-spacing:0px;line-height:120%;opacity:1&quot;&gt;N2&lt;br/&gt;&lt;/font&gt;&lt;/p&gt;&lt;/div&gt;" tags="Background" id="3580vcL_ruPngnJYZpkU-21">
          <mxCell style="verticalAlign=middle;align=left;overflow=width;vsdxID=1123;fillColor=none;gradientColor=none;shape=stencil(nZBLDoAgDERP0z3SIyjew0SURgSD+Lu9kMZoXLhwN9O+tukAlrNpJg1SzDH4QW/URgNYgZTkjA4UkwJUgGXng+6DX1zLfmoymdXo17xh5zmRJ6Q42BWCfc2oJfdAr+Yv+AP9Cb7OJ3H/2JG1HNGz/84klThPVCc=);strokeColor=none;points=[];labelBackgroundColor=none;rounded=0;html=1;whiteSpace=wrap;" parent="3580vcL_ruPngnJYZpkU-1" vertex="1">
            <mxGeometry x="469" y="482" width="31" height="26" as="geometry" />
          </mxCell>
        </UserObject>
        <UserObject label="&lt;div style=&quot;font-size: 1px&quot;&gt;&lt;p style=&quot;text-align:left;margin-left:0;margin-right:0;margin-top:0px;margin-bottom:0px;text-indent:0;vertical-align:middle;direction:ltr;&quot;&gt;&lt;font style=&quot;font-size:16.93px;font-family:Calibri;color:#939393;direction:ltr;letter-spacing:0px;line-height:120%;opacity:1&quot;&gt;N4&lt;br/&gt;&lt;/font&gt;&lt;/p&gt;&lt;/div&gt;" tags="Background" id="3580vcL_ruPngnJYZpkU-22">
          <mxCell style="verticalAlign=middle;align=left;overflow=width;vsdxID=1124;fillColor=none;gradientColor=none;shape=stencil(nZBLDoAgDERP0z3SIyjew0SURgSD+Lu9kMZoXLhwN9O+tukAlrNpJg1SzDH4QW/URgNYgZTkjA4UkwJUgGXng+6DX1zLfmoymdXo17xh5zmRJ6Q42BWCfc2oJfdAr+Yv+AP9Cb7OJ3H/2JG1HNGz/84klThPVCc=);strokeColor=none;points=[];labelBackgroundColor=none;rounded=0;html=1;whiteSpace=wrap;" parent="3580vcL_ruPngnJYZpkU-1" vertex="1">
            <mxGeometry x="621" y="486" width="31" height="26" as="geometry" />
          </mxCell>
        </UserObject>
        <UserObject label="&lt;div style=&quot;font-size: 1px&quot;&gt;&lt;p style=&quot;text-align:left;margin-left:0;margin-right:0;margin-top:0px;margin-bottom:0px;text-indent:0;vertical-align:middle;direction:ltr;&quot;&gt;&lt;font style=&quot;font-size:16.93px;font-family:Calibri;color:#939393;direction:ltr;letter-spacing:0px;line-height:120%;opacity:1&quot;&gt;N6&lt;/font&gt;&lt;font style=&quot;font-size:16.93px;font-family:Themed;color:#939393;direction:ltr;letter-spacing:0px;line-height:120%;opacity:1&quot;&gt;&lt;br/&gt;&lt;/font&gt;&lt;/p&gt;&lt;/div&gt;" tags="Background" id="3580vcL_ruPngnJYZpkU-23">
          <mxCell style="verticalAlign=middle;align=left;overflow=width;vsdxID=1125;fillColor=none;gradientColor=none;shape=stencil(nZBLDoAgDERP0z3SIyjew0SURgSD+Lu9kMZoXLhwN9O+tukAlrNpJg1SzDH4QW/URgNYgZTkjA4UkwJUgGXng+6DX1zLfmoymdXo17xh5zmRJ6Q42BWCfc2oJfdAr+Yv+AP9Cb7OJ3H/2JG1HNGz/84klThPVCc=);strokeColor=none;points=[];labelBackgroundColor=none;rounded=0;html=1;whiteSpace=wrap;" parent="3580vcL_ruPngnJYZpkU-1" vertex="1">
            <mxGeometry x="659" y="568" width="95" height="26" as="geometry" />
          </mxCell>
        </UserObject>
        <UserObject label="&lt;div style=&quot;font-size: 1px&quot;&gt;&lt;p style=&quot;margin: 0px; text-indent: 0px; vertical-align: middle; direction: ltr;&quot;&gt;&lt;font style=&quot;font-size:16.93px;font-family:Calibri;color:#939393;direction:ltr;letter-spacing:0px;line-height:120%;opacity:1&quot;&gt;N3&lt;/font&gt;&lt;font style=&quot;font-size:16.93px;font-family:Themed;color:#939393;direction:ltr;letter-spacing:0px;line-height:120%;opacity:1&quot;&gt;&lt;br&gt;&lt;/font&gt;&lt;/p&gt;&lt;/div&gt;" tags="Background" id="3580vcL_ruPngnJYZpkU-24">
          <mxCell style="verticalAlign=middle;align=center;overflow=width;vsdxID=1127;fillColor=none;gradientColor=none;shape=stencil(nZBLDoAgDERP0z3SIyjew0SURgSD+Lu9kMZoXLhwN9O+tukAlrNpJg1SzDH4QW/URgNYgZTkjA4UkwJUgGXng+6DX1zLfmoymdXo17xh5zmRJ6Q42BWCfc2oJfdAr+Yv+AP9Cb7OJ3H/2JG1HNGz/84klThPVCc=);strokeColor=none;points=[];labelBackgroundColor=none;rounded=0;html=1;whiteSpace=wrap;" parent="3580vcL_ruPngnJYZpkU-1" vertex="1">
            <mxGeometry x="516" y="568" width="46" height="26" as="geometry" />
          </mxCell>
        </UserObject>
        <UserObject label="" tags="Background" id="3580vcL_ruPngnJYZpkU-25">
          <mxCell style="vsdxID=1128;fillColor=none;gradientColor=none;strokeColor=none;strokeWidth=2;points=[[0.5,0.5,0]];labelBackgroundColor=none;rounded=0;html=1;whiteSpace=wrap;" parent="3580vcL_ruPngnJYZpkU-1" vertex="1">
            <mxGeometry x="735" y="473" width="220" height="170" as="geometry" />
          </mxCell>
        </UserObject>
        <mxCell id="3580vcL_ruPngnJYZpkU-26" style="vsdxID=1129;fillColor=#ffffff;gradientColor=none;shape=stencil(lZZRc9sgDMc/jV91lgQInrvue/TWdPEtS3ppunXffng2wsgXentzFIkfSH8JBn54Oz69HgYa327Xy4/D7+n5dhz4y0A0nY+H63TLXwM/Dvzwcrkevl8v7+fn5ffr0+w5f/28/JpX+FjiYgCKcxSNfxYLCZD7Z/m6BHx7vy4RuIZ4ELeGrCZMy+8PWl0QXHFZTUjgw+rFi0kCoKxebL3uwMVBEAPfrLzChIGC4TOgwSMki3cwcg8fErjU4j0kbunBAfuWPrZo70CwRY/gYo/sCDCag+uJSEvHNu0jJNfCKW8vtHCKwKlHz9sTc25K4GPLx1izs5qYIJmyowBSy2cB1y07Bq1x4ecYNmVHU/PZxbA9uD27W3KpIsXdsqW8ELlFO4HYonOBjdpCTmoXPbZc0SxVodfNldZzgDbh+0NXr/sJN/neLkxaSTF6i1zbgVUV0Rk8g6dP9Oa94XtNoOqdqioLP+h8UL37MtAqX73u8QUsfrNwwecOsHgPwbd4RiC/O37qjlh2tWKrKTGw4bvc22bO4GgmjYtlrig9JaBu8n0Ah4YedUM65RBsvyWvsMIPvBuyaSwSuTdks9LMBZNjorlj5imLhr/xYvXSkVT5sX/HcJ3fpfpZwyb7IlVWtfeiEZ9EMMXPFupO+uwg3OLnGHP8bEqm9bPJtJ7kUu/o3dzn5IS0g5txpypTMul9r12vPuXOw09EXyPKlVeHQCEnt7vYOcuJWvb2UVOGgH3VnKbz/z2D8kd9RL1Mp9PyBtv+bx9d2bQ82PjxLw==);strokeColor=#595959;strokeWidth=2;points=[[0.5,0.5,0]];labelBackgroundColor=none;rounded=0;html=1;whiteSpace=wrap;" parent="3580vcL_ruPngnJYZpkU-25" vertex="1">
          <mxGeometry y="35.96153846153847" width="220" height="96.4423076923077" as="geometry" />
        </mxCell>
        <mxCell id="3580vcL_ruPngnJYZpkU-27" value="&lt;div style=&quot;font-size: 1px&quot;&gt;&lt;font style=&quot;font-size:19.76px;font-family:Calibri;color:#002060;direction:ltr;letter-spacing:0px;line-height:120%;opacity:1&quot;&gt;Data Network&lt;br/&gt;[e.g., Internet]&lt;br/&gt;&lt;/font&gt;&lt;/div&gt;" style="text;vsdxID=1128;fillColor=none;gradientColor=none;strokeColor=none;strokeWidth=2;points=[[0.5,0.5,0]];labelBackgroundColor=none;rounded=0;html=1;whiteSpace=wrap;verticalAlign=middle;align=center;overflow=width;;html=1;" parent="3580vcL_ruPngnJYZpkU-25" vertex="1">
          <mxGeometry x="-42.726315789473695" y="36.43557692307694" width="305.4294736842105" height="95.96826923076924" as="geometry" />
        </mxCell>
        <UserObject label="" tags="Background" id="3580vcL_ruPngnJYZpkU-28">
          <mxCell style="vsdxID=1091;edgeStyle=none;startArrow=none;endArrow=none;startSize=5;endSize=5;strokeWidth=2;strokeColor=#595959;spacingTop=0;spacingBottom=0;spacingLeft=0;spacingRight=0;verticalAlign=middle;html=1;labelBackgroundColor=#ffffff;rounded=0;" parent="3580vcL_ruPngnJYZpkU-1" edge="1">
            <mxGeometry relative="1" as="geometry">
              <mxPoint as="offset" />
              <Array as="points" />
              <mxPoint x="431" y="380" as="sourcePoint" />
              <mxPoint x="767" y="380" as="targetPoint" />
            </mxGeometry>
          </mxCell>
        </UserObject>
        <UserObject label="" tags="Background" id="3580vcL_ruPngnJYZpkU-33">
          <mxCell style="vsdxID=1117;edgeStyle=none;startArrow=none;endArrow=none;startSize=5;endSize=5;strokeWidth=2;strokeColor=#595959;spacingTop=0;spacingBottom=0;spacingLeft=0;spacingRight=0;verticalAlign=middle;html=1;labelBackgroundColor=#ffffff;rounded=0;entryX=1.02;entryY=0.5;entryDx=0;entryDy=0;entryPerimeter=0;exitX=0;exitY=0.548;exitDx=0;exitDy=0;exitPerimeter=0;" parent="3580vcL_ruPngnJYZpkU-1" source="3580vcL_ruPngnJYZpkU-25" target="3580vcL_ruPngnJYZpkU-6" edge="1">
            <mxGeometry relative="1" as="geometry">
              <Array as="points" />
              <mxPoint x="705" y="568" as="sourcePoint" />
            </mxGeometry>
          </mxCell>
        </UserObject>
        <mxCell id="3580vcL_ruPngnJYZpkU-34" value="&lt;div style=&quot;font-size: 1px&quot;&gt;&lt;/div&gt;" style="text;vsdxID=1117;edgeStyle=none;startArrow=none;endArrow=none;startSize=5;endSize=5;strokeWidth=2;strokeColor=none;spacingTop=0;spacingBottom=0;spacingLeft=0;spacingRight=0;verticalAlign=middle;html=1;labelBackgroundColor=#ffffff;rounded=0;align=center;overflow=width;fillColor=none;gradientColor=none;whiteSpace=wrap;;html=1;;rotation=359.824311759554" parent="3580vcL_ruPngnJYZpkU-33" vertex="1">
          <mxGeometry width="102.99" height="1" relative="1" as="geometry">
            <mxPoint x="256" y="-6" as="offset" />
          </mxGeometry>
        </mxCell>
        <UserObject label="" tags="Background" id="3580vcL_ruPngnJYZpkU-35">
          <mxCell style="vsdxID=1116;edgeStyle=none;startArrow=none;endArrow=none;startSize=5;endSize=5;strokeWidth=2;strokeColor=#595959;spacingTop=0;spacingBottom=0;spacingLeft=0;spacingRight=0;verticalAlign=middle;html=1;labelBackgroundColor=#ffffff;rounded=0;exitX=0;exitY=0.5;exitDx=0;exitDy=0;exitPerimeter=0;entryX=1.02;entryY=0.5;entryDx=0;entryDy=0;entryPerimeter=0;" parent="3580vcL_ruPngnJYZpkU-1" source="3580vcL_ruPngnJYZpkU-6" target="3580vcL_ruPngnJYZpkU-60" edge="1">
            <mxGeometry relative="1" as="geometry">
              <Array as="points" />
            </mxGeometry>
          </mxCell>
        </UserObject>
        <mxCell id="3580vcL_ruPngnJYZpkU-36" value="&lt;div style=&quot;font-size: 1px&quot;&gt;&lt;/div&gt;" style="text;vsdxID=1116;edgeStyle=none;startArrow=none;endArrow=none;startSize=5;endSize=5;strokeWidth=2;strokeColor=none;spacingTop=0;spacingBottom=0;spacingLeft=0;spacingRight=0;verticalAlign=middle;html=1;labelBackgroundColor=#ffffff;rounded=0;align=center;overflow=width;fillColor=none;gradientColor=none;whiteSpace=wrap;;html=1;;rotation=0" parent="3580vcL_ruPngnJYZpkU-35" vertex="1">
          <mxGeometry width="76.5" height="1" relative="1" as="geometry">
            <mxPoint x="37.75" y="-0.5" as="offset" />
          </mxGeometry>
        </mxCell>
        <UserObject label="" tags="Background" id="3580vcL_ruPngnJYZpkU-37">
          <mxCell style="vsdxID=1113;edgeStyle=none;startArrow=none;endArrow=none;startSize=5;endSize=5;strokeWidth=2;strokeColor=#595959;spacingTop=0;spacingBottom=0;spacingLeft=0;spacingRight=0;verticalAlign=middle;html=1;labelBackgroundColor=#ffffff;rounded=0;exitX=0.5;exitY=0;exitDx=0;exitDy=0;exitPerimeter=0;entryX=0.5;entryY=1.02;entryDx=0;entryDy=0;entryPerimeter=0;" parent="3580vcL_ruPngnJYZpkU-1" source="3580vcL_ruPngnJYZpkU-6" target="3580vcL_ruPngnJYZpkU-12" edge="1">
            <mxGeometry relative="1" as="geometry">
              <Array as="points" />
            </mxGeometry>
          </mxCell>
        </UserObject>
        <mxCell id="3580vcL_ruPngnJYZpkU-38" value="&lt;div style=&quot;font-size: 1px&quot;&gt;&lt;/div&gt;" style="text;vsdxID=1113;edgeStyle=none;startArrow=none;endArrow=none;startSize=5;endSize=5;strokeWidth=2;strokeColor=none;spacingTop=0;spacingBottom=0;spacingLeft=0;spacingRight=0;verticalAlign=middle;html=1;labelBackgroundColor=#ffffff;rounded=0;align=center;overflow=width;fillColor=none;gradientColor=none;whiteSpace=wrap;;html=1;;rotation=270" parent="3580vcL_ruPngnJYZpkU-37" vertex="1">
          <mxGeometry width="144.38" height="1" relative="1" as="geometry">
            <mxPoint x="-0.18999999999999773" y="-1.5" as="offset" />
          </mxGeometry>
        </mxCell>
        <UserObject label="" tags="Background" id="3580vcL_ruPngnJYZpkU-39">
          <mxCell style="vsdxID=1112;edgeStyle=none;startArrow=none;endArrow=none;startSize=5;endSize=5;strokeWidth=2;strokeColor=#595959;spacingTop=0;spacingBottom=0;spacingLeft=0;spacingRight=0;verticalAlign=middle;html=1;labelBackgroundColor=#ffffff;rounded=0;exitX=1;exitY=0.5;exitDx=0;exitDy=0;entryX=0.5;entryY=1.02;entryDx=0;entryDy=0;entryPerimeter=0;exitPerimeter=0;" parent="3580vcL_ruPngnJYZpkU-1" source="3580vcL_ruPngnJYZpkU-60" target="3580vcL_ruPngnJYZpkU-13" edge="1">
            <mxGeometry relative="1" as="geometry">
              <Array as="points">
                <mxPoint x="492" y="550" />
              </Array>
            </mxGeometry>
          </mxCell>
        </UserObject>
        <mxCell id="3580vcL_ruPngnJYZpkU-40" value="&lt;div style=&quot;font-size: 1px&quot;&gt;&lt;/div&gt;" style="text;vsdxID=1112;edgeStyle=none;startArrow=none;endArrow=none;startSize=5;endSize=5;strokeWidth=2;strokeColor=none;spacingTop=0;spacingBottom=0;spacingLeft=0;spacingRight=0;verticalAlign=middle;html=1;labelBackgroundColor=#ffffff;rounded=0;align=center;overflow=width;fillColor=none;gradientColor=none;whiteSpace=wrap;;html=1;;rotation=270.04050250559015" parent="3580vcL_ruPngnJYZpkU-39" vertex="1">
          <mxGeometry width="144.38" height="1" relative="1" as="geometry">
            <mxPoint x="-0.18999999999999773" y="-1.5" as="offset" />
          </mxGeometry>
        </mxCell>
        <mxCell id="3580vcL_ruPngnJYZpkU-41" parent="3580vcL_ruPngnJYZpkU-1" vertex="1">
          <mxGeometry x="722" y="380" as="geometry" />
        </mxCell>
        <UserObject label="" tags="Background" id="3580vcL_ruPngnJYZpkU-42">
          <mxCell style="vsdxID=1099;edgeStyle=none;startArrow=none;endArrow=none;startSize=5;endSize=5;strokeWidth=2;strokeColor=#595959;spacingTop=0;spacingBottom=0;spacingLeft=0;spacingRight=0;verticalAlign=middle;html=1;labelBackgroundColor=#ffffff;rounded=0;entryX=0.52;entryY=1.02;entryDx=0;entryDy=0;entryPerimeter=0;" parent="3580vcL_ruPngnJYZpkU-1" source="3580vcL_ruPngnJYZpkU-41" target="3580vcL_ruPngnJYZpkU-10" edge="1">
            <mxGeometry relative="1" as="geometry">
              <Array as="points" />
            </mxGeometry>
          </mxCell>
        </UserObject>
        <mxCell id="3580vcL_ruPngnJYZpkU-43" parent="3580vcL_ruPngnJYZpkU-1" vertex="1">
          <mxGeometry x="640" y="380" as="geometry" />
        </mxCell>
        <UserObject label="" tags="Background" id="3580vcL_ruPngnJYZpkU-44">
          <mxCell style="vsdxID=1098;edgeStyle=none;startArrow=none;endArrow=none;startSize=5;endSize=5;strokeWidth=2;strokeColor=#595959;spacingTop=0;spacingBottom=0;spacingLeft=0;spacingRight=0;verticalAlign=middle;html=1;labelBackgroundColor=#ffffff;rounded=0;entryX=0.52;entryY=1.02;entryDx=0;entryDy=0;entryPerimeter=0;" parent="3580vcL_ruPngnJYZpkU-1" source="3580vcL_ruPngnJYZpkU-43" target="3580vcL_ruPngnJYZpkU-9" edge="1">
            <mxGeometry relative="1" as="geometry">
              <Array as="points" />
            </mxGeometry>
          </mxCell>
        </UserObject>
        <mxCell id="3580vcL_ruPngnJYZpkU-45" parent="3580vcL_ruPngnJYZpkU-1" vertex="1">
          <mxGeometry x="540" y="380" as="geometry" />
        </mxCell>
        <UserObject label="" tags="Background" id="3580vcL_ruPngnJYZpkU-46">
          <mxCell style="vsdxID=1097;edgeStyle=none;startArrow=none;endArrow=none;startSize=5;endSize=5;strokeWidth=2;strokeColor=#595959;spacingTop=0;spacingBottom=0;spacingLeft=0;spacingRight=0;verticalAlign=middle;html=1;labelBackgroundColor=#ffffff;rounded=0;entryX=0.5;entryY=1.02;entryDx=0;entryDy=0;entryPerimeter=0;" parent="3580vcL_ruPngnJYZpkU-1" source="3580vcL_ruPngnJYZpkU-45" target="3580vcL_ruPngnJYZpkU-8" edge="1">
            <mxGeometry relative="1" as="geometry">
              <Array as="points" />
            </mxGeometry>
          </mxCell>
        </UserObject>
        <mxCell id="3580vcL_ruPngnJYZpkU-47" parent="3580vcL_ruPngnJYZpkU-1" vertex="1">
          <mxGeometry x="619" y="380" as="geometry" />
        </mxCell>
        <UserObject label="" tags="Background" id="3580vcL_ruPngnJYZpkU-48">
          <mxCell style="vsdxID=1096;edgeStyle=none;startArrow=none;endArrow=none;startSize=5;endSize=5;strokeWidth=2;strokeColor=#595959;spacingTop=0;spacingBottom=0;spacingLeft=0;spacingRight=0;verticalAlign=middle;html=1;labelBackgroundColor=#ffffff;rounded=0;exitX=0.5;exitY=0;exitDx=0;exitDy=0;exitPerimeter=0;" parent="3580vcL_ruPngnJYZpkU-1" source="3580vcL_ruPngnJYZpkU-12" target="3580vcL_ruPngnJYZpkU-47" edge="1">
            <mxGeometry relative="1" as="geometry">
              <Array as="points" />
            </mxGeometry>
          </mxCell>
        </UserObject>
        <mxCell id="3580vcL_ruPngnJYZpkU-49" parent="3580vcL_ruPngnJYZpkU-1" vertex="1">
          <mxGeometry x="492" y="380" as="geometry" />
        </mxCell>
        <UserObject label="" tags="Background" id="3580vcL_ruPngnJYZpkU-50">
          <mxCell style="vsdxID=1095;edgeStyle=none;startArrow=none;endArrow=none;startSize=5;endSize=5;strokeWidth=2;strokeColor=#595959;spacingTop=0;spacingBottom=0;spacingLeft=0;spacingRight=0;verticalAlign=middle;html=1;labelBackgroundColor=#ffffff;rounded=0;exitX=0.5;exitY=0;exitDx=0;exitDy=0;exitPerimeter=0;" parent="3580vcL_ruPngnJYZpkU-1" source="3580vcL_ruPngnJYZpkU-13" target="3580vcL_ruPngnJYZpkU-49" edge="1">
            <mxGeometry relative="1" as="geometry">
              <Array as="points" />
            </mxGeometry>
          </mxCell>
        </UserObject>
        <mxCell id="3580vcL_ruPngnJYZpkU-51" parent="3580vcL_ruPngnJYZpkU-1" vertex="1">
          <mxGeometry x="701" y="380" as="geometry" />
        </mxCell>
        <UserObject label="" tags="Background" id="3580vcL_ruPngnJYZpkU-52">
          <mxCell style="vsdxID=1093;edgeStyle=none;startArrow=none;endArrow=none;startSize=5;endSize=5;strokeWidth=2;strokeColor=#595959;spacingTop=0;spacingBottom=0;spacingLeft=0;spacingRight=0;verticalAlign=middle;html=1;labelBackgroundColor=#ffffff;rounded=0;exitX=0.5;exitY=0;exitDx=0;exitDy=0;exitPerimeter=0;" parent="3580vcL_ruPngnJYZpkU-1" source="3580vcL_ruPngnJYZpkU-7" target="3580vcL_ruPngnJYZpkU-51" edge="1">
            <mxGeometry relative="1" as="geometry">
              <Array as="points" />
            </mxGeometry>
          </mxCell>
        </UserObject>
        <mxCell id="3580vcL_ruPngnJYZpkU-53" parent="3580vcL_ruPngnJYZpkU-1" vertex="1">
          <mxGeometry x="459" y="380" as="geometry" />
        </mxCell>
        <UserObject label="" tags="Background" id="3580vcL_ruPngnJYZpkU-55">
          <mxCell style="vsdxID=1092;edgeStyle=none;startArrow=none;endArrow=none;startSize=5;endSize=5;strokeWidth=2;strokeColor=#595959;spacingTop=0;spacingBottom=0;spacingLeft=0;spacingRight=0;verticalAlign=middle;html=1;labelBackgroundColor=#ffffff;rounded=0;entryX=0.52;entryY=1.02;entryDx=0;entryDy=0;entryPerimeter=0;" parent="3580vcL_ruPngnJYZpkU-1" source="3580vcL_ruPngnJYZpkU-53" target="3580vcL_ruPngnJYZpkU-11" edge="1">
            <mxGeometry relative="1" as="geometry">
              <Array as="points" />
            </mxGeometry>
          </mxCell>
        </UserObject>
        <UserObject label="&lt;div style=&quot;font-size: 1px&quot;&gt;&lt;p style=&quot;margin: 0px; text-indent: 0px; vertical-align: middle; direction: ltr;&quot;&gt;&lt;font style=&quot;font-size:16.93px;font-family:Calibri;color:#939393;direction:ltr;letter-spacing:0px;line-height:120%;opacity:1&quot;&gt;NWu&lt;/font&gt;&lt;font style=&quot;font-size:16.93px;font-family:Themed;color:#939393;direction:ltr;letter-spacing:0px;line-height:120%;opacity:1&quot;&gt;&lt;br&gt;&lt;/font&gt;&lt;/p&gt;&lt;/div&gt;" tags="Background" id="3580vcL_ruPngnJYZpkU-59">
          <mxCell style="verticalAlign=middle;align=center;overflow=width;vsdxID=1127;fillColor=none;gradientColor=none;shape=stencil(nZBLDoAgDERP0z3SIyjew0SURgSD+Lu9kMZoXLhwN9O+tukAlrNpJg1SzDH4QW/URgNYgZTkjA4UkwJUgGXng+6DX1zLfmoymdXo17xh5zmRJ6Q42BWCfc2oJfdAr+Yv+AP9Cb7OJ3H/2JG1HNGz/84klThPVCc=);strokeColor=none;points=[];labelBackgroundColor=none;rounded=0;html=1;whiteSpace=wrap;" parent="3580vcL_ruPngnJYZpkU-1" vertex="1">
            <mxGeometry x="230" y="568" width="46" height="26" as="geometry" />
          </mxCell>
        </UserObject>
        <UserObject label="&lt;div style=&quot;font-size: 1px&quot;&gt;&lt;font style=&quot;font-size:16.93px;font-family:Calibri;color:#feffff;direction:ltr;letter-spacing:0px;line-height:120%;opacity:1&quot;&gt;N3IWF&lt;/font&gt;&lt;/div&gt;" tags="Background" id="3580vcL_ruPngnJYZpkU-60">
          <mxCell style="verticalAlign=middle;align=center;overflow=width;vsdxID=1115;fillColor=#00b050;gradientColor=none;shape=stencil(nZBLDoAgDERP0z3SIyjew0SURgSD+Lu9kMZoXLhwN9O+tukAlrNpJg1SzDH4QW/URgNYgZTkjA4UkwJUgGXng+6DX1zLfmoymdXo17xh5zmRJ6Q42BWCfc2oJfdAr+Yv+AP9Cb7OJ3H/2JG1HNGz/84klThPVCc=);strokeColor=#939393;points=[[0,0.5,0],[1,0.5,0],[0.5,1,0],[0.5,0,0]];labelBackgroundColor=none;rounded=0;html=1;whiteSpace=wrap;" parent="3580vcL_ruPngnJYZpkU-1" vertex="1">
            <mxGeometry x="410" y="543" width="50" height="50" as="geometry" />
          </mxCell>
        </UserObject>
        <UserObject label="" tags="Background" id="74oyy-3860R452yLyvD9-3">
          <mxCell style="vsdxID=1146;edgeStyle=none;startArrow=none;endArrow=none;startSize=5;endSize=5;strokeWidth=2;strokeColor=#595959;spacingTop=0;spacingBottom=0;spacingLeft=0;spacingRight=0;verticalAlign=middle;html=1;labelBackgroundColor=#ffffff;rounded=0;entryX=0.5;entryY=0.5;entryDx=0;entryDy=0;entryPerimeter=0;dashed=1;dashPattern=1 1;exitX=0;exitY=0.5;exitDx=0;exitDy=0;exitPerimeter=0;" parent="3580vcL_ruPngnJYZpkU-1" source="3580vcL_ruPngnJYZpkU-60" target="3580vcL_ruPngnJYZpkU-31" edge="1">
            <mxGeometry relative="1" as="geometry">
              <Array as="points" />
              <mxPoint x="409" y="579.5" as="sourcePoint" />
              <mxPoint x="229" y="579.5" as="targetPoint" />
            </mxGeometry>
          </mxCell>
        </UserObject>
        <mxCell id="74oyy-3860R452yLyvD9-8" value="WLAN&lt;div&gt;&lt;br&gt;&lt;/div&gt;" style="rounded=0;whiteSpace=wrap;html=1;fillStyle=dashed;fillColor=default;gradientColor=#9CF8FF;shadow=0;glass=0;opacity=40;" parent="3580vcL_ruPngnJYZpkU-1" vertex="1">
          <mxGeometry x="287" y="547" width="80" height="40" as="geometry" />
        </mxCell>
        <UserObject label="UE" tags="Background" id="3580vcL_ruPngnJYZpkU-29">
          <mxCell style="vsdxID=1142;fillColor=none;gradientColor=none;strokeColor=none;points=[[0.5,0.5,0]];labelBackgroundColor=none;rounded=0;html=1;whiteSpace=wrap;" parent="3580vcL_ruPngnJYZpkU-1" vertex="1">
            <mxGeometry x="190" y="543" width="50" height="50" as="geometry" />
          </mxCell>
        </UserObject>
        <mxCell id="3580vcL_ruPngnJYZpkU-30" style="vsdxID=1143;fillColor=#002060;gradientColor=none;shape=stencil(lVTLcoMwDPwaXzW2xMvnNP2PTEMKUwoZQtrw9zW1wZZboL3Zy4rVYy1Bh1t1upYC5W3ou7fysz4PlaAngVi3VdnXgzkJOgo6XLq+fO27e3u29+tpYk6n9+5j+sPDxskpAuVob5ogL76RZ0t+ufeWrTjdXXUKOrfQAy1EQA4ZHaILxyB7zyFxyEgzA1BvyQYhKg7xygoKzaWVlFw7lVx5JqzoZgUoxYX9L+fyEFKMK/bJ0U/WX6vWGWQUl83Fl2wW6WAiFHNoZcpN3QaW8HzXBEDcStPzHZCApKhHppKEJ4q7/VGQb3YniFA8YtE180sjN+4YYtMOocP4g5gFA6PikpPa8//CWdP1b0rx7vGiZs1gAMQJ9PtIuQF2dsK/yObgV8+lbhq7ucLv8aoykF1zdPwC);strokeColor=#939393;points=[[0.5,0.5,0]];labelBackgroundColor=none;rounded=0;html=1;whiteSpace=wrap;" parent="3580vcL_ruPngnJYZpkU-29" vertex="1">
          <mxGeometry x="11" width="26" height="50" as="geometry" />
        </mxCell>
        <mxCell id="3580vcL_ruPngnJYZpkU-31" style="vsdxID=1144;fillColor=#002060;gradientColor=none;shape=stencil(nZBLDoAgDERP0z3SIyjew0SURgSD+Lu9kMZoXLhwN9O+tukAlrNpJg1SzDH4QW/URgNYgZTkjA4UkwJUgGXng+6DX1zLfmoymdXo17xh5zmRJ6Q42BWCfc2oJfdAr+Yv+AP9Cb7OJ3H/2JG1HNGz/84klThPVCc=);strokeColor=#FFFFFF;points=[[0.5,0.5,0]];labelBackgroundColor=none;rounded=0;html=1;whiteSpace=wrap;" parent="3580vcL_ruPngnJYZpkU-29" vertex="1">
          <mxGeometry x="14" y="7" width="22" height="37" as="geometry" />
        </mxCell>
        <mxCell id="3580vcL_ruPngnJYZpkU-32" style="vsdxID=1145;fillColor=#FFFFFF;gradientColor=none;shape=stencil(zVTLUsMwDPwaH+MRFmnwuZT/8FAn8WDijOK26d/joAAxM+mFlulNWq1ee1iB26E1vRUKhkjhzZ7cPrYCn4VSrmstuZgigTuB2zqQbSgcuj3nvZmYU/QejtOEkftg6lBw5kxXUpefyAuTDb2mKs3kUqJmPs0NDxIUIzMlIeVmZSaMhRndUFCIJrrQZRd4Q40t0r6i9qaZp3NpOFnbL2D404VrH9/kulxs1PKr62qCb0BW1V0LfunrfxC9epKPeGXRtZZa37Xol76+yYUp+PGY2nn/XVmznqRh7hTZPO+6JRck4Do5W87euKz9NsMEsZHi7gM=);strokeColor=#FFFFFF;points=[[0.5,0.5,0]];labelBackgroundColor=none;rounded=0;html=1;whiteSpace=wrap;" parent="3580vcL_ruPngnJYZpkU-29" vertex="1">
          <mxGeometry x="21" y="4" width="8" height="44" as="geometry" />
        </mxCell>
      </root>
    </mxGraphModel>
  </diagram>
</mxfile>
